# xmcd
#
# Track frame offsets: 
#        150
#        21329
#        36079
#        61578
#        82641
#        104901
#        130615
#        147784
#        170434
#        193830
#        217646
#        230570
#        251679
#        266923
#        287680
#        298648
#        320124
#        336085
#
# Disc length: 4717 seconds
#
# Revision: 0
# Processed by: cddbd v1.5.2PL0 Copyright (c) Steve Scherf et al.
# Submitted via: ExactAudioCopy v0.99pb5
#
DISCID=0b126b12
DTITLE=Joe Cocker - King Of World Music
DYEAR=2001
DGENRE=Classic Soft Rock
TTITLE0=Don't Let Me Be Misunderstood
TTITLE1=Sandpaper Cadillac
TTITLE2=Feelin' Alright (Live)
TTITLE3=Darling Be Home Soon
TTITLE4=Superstar (Live)
TTITLE5=Delta Lady (Live)
TTITLE6=Honky Tonk Women (Live)
TTITLE7=Let It Be
TTITLE8=With A Little Help From My Friends
TTITLE9=Just Like A Woman
TTITLE10=She Came In Through The Bathroom Window (Live)
TTITLE11=The Letter (Live)
TTITLE12=Dear Landlord
TTITLE13=I Shall Be Released
TTITLE14=Girl From The North Country (Live)
TTITLE15=Space Captain (Live)
TTITLE16=Something (Live)
TTITLE17=Cry Me A River (Live)
EXTD=
EXTT0=
EXTT1=
EXTT2=
EXTT3=
EXTT4=
EXTT5=
EXTT6=
EXTT7=
EXTT8=
EXTT9=
EXTT10=
EXTT11=
EXTT12=
EXTT13=
EXTT14=
EXTT15=
EXTT16=
EXTT17=
PLAYORDER=
